<svg width="53" height="57" viewBox="0 0 53 57" fill="none" xmlns="http://www.w3.org/2000/svg">
<path d="M1.5 54.5343H54.5V1.51669L52.9834 1.53427L8.9834 2.03427L8.30371 2.04208L7.86133 2.55771L1.86133 9.55771L1.5 9.97958V54.5343Z" fill="#FFC810" stroke="#E91515" stroke-width="3"/>
<path d="M39.1397 19.1447C37.0293 18.1609 34.7444 17.4469 32.3642 17.0343C32.3434 17.0337 32.3226 17.0376 32.3034 17.0458C32.2842 17.054 32.2671 17.0664 32.2532 17.0819C31.9675 17.6056 31.6343 18.2879 31.4122 18.8115C28.8876 18.4307 26.3202 18.4307 23.7957 18.8115C23.5735 18.272 23.2403 17.6056 22.9388 17.0819C22.923 17.0502 22.8754 17.0343 22.8278 17.0343C20.4476 17.4469 18.1785 18.1609 16.0523 19.1447C16.0364 19.1447 16.0205 19.1606 16.0047 19.1765C11.6887 25.6346 10.4986 31.9182 11.0857 38.1383C11.0857 38.1701 11.1016 38.2018 11.1333 38.2177C13.9895 40.3122 16.7346 41.5816 19.448 42.4226C19.4956 42.4385 19.5432 42.4226 19.559 42.3909C20.1937 41.5181 20.765 40.5978 21.2569 39.6299C21.2886 39.5664 21.2569 39.5029 21.1934 39.4871C20.2889 39.138 19.4321 38.7254 18.5911 38.2494C18.5276 38.2177 18.5276 38.1225 18.5752 38.0749C18.7498 37.9479 18.9243 37.8051 19.0989 37.6782C19.1306 37.6464 19.1782 37.6464 19.2099 37.6623C24.6684 40.1535 30.5553 40.1535 35.9503 37.6623C35.9821 37.6464 36.0297 37.6464 36.0614 37.6782C36.2359 37.821 36.4105 37.9479 36.585 38.0907C36.6485 38.1383 36.6485 38.2335 36.5692 38.2653C35.744 38.7572 34.8713 39.1539 33.9669 39.5029C33.9034 39.5188 33.8875 39.5982 33.9034 39.6458C34.4112 40.6137 34.9824 41.534 35.6012 42.4067C35.6488 42.4226 35.6964 42.4385 35.744 42.4226C38.4733 41.5816 41.2184 40.3122 44.0746 38.2177C44.1063 38.2018 44.1222 38.1701 44.1222 38.1383C44.8203 30.9503 42.9638 24.7143 39.2032 19.1765C39.1873 19.1606 39.1715 19.1447 39.1397 19.1447ZM22.082 34.346C20.4476 34.346 19.083 32.8385 19.083 30.982C19.083 29.1255 20.4159 27.6181 22.082 27.6181C23.764 27.6181 25.0968 29.1414 25.081 30.982C25.081 32.8385 23.7481 34.346 22.082 34.346ZM33.1417 34.346C31.5074 34.346 30.1428 32.8385 30.1428 30.982C30.1428 29.1255 31.4756 27.6181 33.1417 27.6181C34.8237 27.6181 36.1566 29.1414 36.1407 30.982C36.1407 32.8385 34.8237 34.346 33.1417 34.346Z" fill="black"/>
</svg>
