<svg width="53" height="57" viewBox="0 0 53 57" fill="none" xmlns="http://www.w3.org/2000/svg">
<path d="M1.5 54.5343H54.5V1.51669L52.9834 1.53427L8.9834 2.03427L8.30371 2.04208L7.86133 2.55771L1.86133 9.55771L1.5 9.97958V54.5343Z" fill="#FFC810" stroke="#E91515" stroke-width="3"/>
<path d="M41.8765 18.1088L44.5014 15.5867V15.0343H35.4105L28.9317 31.2378L21.5621 15.0343H12.0301V15.5867L15.0961 19.295C15.3959 19.569 15.55 19.9716 15.5115 20.3741V34.9461C15.6057 35.4728 15.4387 36.0081 15.0704 36.3892L11.6147 40.5985V41.1424H21.4037V40.59L17.9523 36.3935C17.7674 36.2058 17.6283 35.9779 17.5458 35.7276C17.4634 35.4773 17.4398 35.2113 17.477 34.9504V22.3439L26.0712 41.1509H27.0689L34.4599 22.3439V37.327C34.4599 37.721 34.4599 37.8023 34.2029 38.0635L31.5437 40.6456V41.198H44.4415V40.6456L41.8765 38.1235C41.6538 37.9522 41.5382 37.6653 41.5853 37.387V18.8454C41.5632 18.7078 41.5785 18.5667 41.6297 18.4371C41.681 18.3075 41.7662 18.1941 41.8765 18.1088Z" fill="black"/>
</svg>
