<svg width="53" height="57" viewBox="0 0 53 57" fill="none" xmlns="http://www.w3.org/2000/svg">
<path d="M1.5 54.5343H54.5V1.51669L52.9834 1.53427L8.9834 2.03427L8.30371 2.04208L7.86133 2.55771L1.86133 9.55771L1.5 9.97958V54.5343Z" fill="#FFC810" stroke="#E91515" stroke-width="3"/>
<g clip-path="url(#clip0_2_138)">
<path d="M20.2835 38.4934V20.6414H14.3498V38.4934H20.2835ZM17.3174 18.2025C19.3866 18.2025 20.6746 16.8317 20.6746 15.1186C20.636 13.3669 19.3867 12.0341 17.3567 12.0341C15.327 12.0341 13.9998 13.3669 13.9998 15.1186C13.9998 16.8318 15.2874 18.2025 17.2787 18.2025H17.3172H17.3174ZM23.5678 38.4934H29.5014V28.524C29.5014 27.9904 29.54 27.4574 29.6967 27.076C30.1256 26.01 31.1019 24.9059 32.7411 24.9059C34.8882 24.9059 35.7472 26.543 35.7472 28.9429V38.4933H41.6805V28.2571C41.6805 22.7737 38.7531 20.2223 34.8491 20.2223C31.6482 20.2223 30.2427 22.0115 29.4619 23.2301H29.5015V20.641H23.5679C23.6458 22.3161 23.5679 38.4931 23.5679 38.4931L23.5678 38.4934Z" fill="black"/>
</g>
<defs>
<clipPath id="clip0_2_138">
<rect width="27.6807" height="26.4593" fill="white" transform="translate(14 12.0343)"/>
</clipPath>
</defs>
</svg>
