<svg width="53" height="57" viewBox="0 0 53 57" fill="none" xmlns="http://www.w3.org/2000/svg">
<path d="M1.5 54.5343H54.5V1.51669L52.9834 1.53427L8.9834 2.03427L8.30371 2.04208L7.86133 2.55771L1.86133 9.55771L1.5 9.97958V54.5343Z" fill="#FFC810" stroke="#E91515" stroke-width="3"/>
<g clip-path="url(#clip0_2_134)">
<path d="M38.9632 39.3472C38.9632 40.3595 38.6002 41.2281 37.8739 41.9501C37.1477 42.6735 36.2773 43.0346 35.2607 43.0346H27.9409C24.8913 43.0346 22.2852 41.9572 20.1211 39.7997C17.9564 37.6425 16.8751 35.0459 16.8751 32.006V17.2228C16.8751 16.181 17.2356 15.306 17.9564 14.5961C18.6771 13.8873 19.5576 13.5318 20.5967 13.5318C21.6057 13.5318 22.4726 13.8939 23.1924 14.6173C23.9144 15.3398 24.2759 16.2068 24.2759 17.2202V22.5731H34.6972C35.6434 22.5731 36.454 22.9084 37.1302 23.5796C37.8056 24.2496 38.1426 25.0538 38.1426 25.9929C38.1426 26.9301 37.8056 27.7357 37.1326 28.4062C36.4594 29.0759 35.6504 29.4118 34.7083 29.4118H24.2759V32.0026C24.2759 33.0186 24.6305 33.8816 25.3434 34.5935C26.0555 35.3034 26.9201 35.6588 27.9372 35.6588H35.2593C36.2753 35.6588 37.1477 36.0213 37.8739 36.7443C38.6001 37.4676 38.9632 38.3352 38.9632 39.3472" fill="black"/>
</g>
<defs>
<clipPath id="clip0_2_134">
<rect width="22.0882" height="29.5028" fill="white" transform="translate(16.8749 13.5315)"/>
</clipPath>
</defs>
</svg>
